# Blender v2.79 (sub 0) OBJ File: ''
# www.blender.org
mtllib Cone.mtl
o Cone
v 0.095186 -0.030855 1.387336
v 0.095186 1.969145 2.387336
v 0.193203 -0.030855 1.392151
v 0.290276 -0.030855 1.406551
v 0.385470 -0.030855 1.430395
v 0.477869 -0.030855 1.463456
v 0.566583 -0.030855 1.505414
v 0.650756 -0.030855 1.555866
v 0.729579 -0.030855 1.614325
v 0.802293 -0.030855 1.680229
v 0.868196 -0.030855 1.752942
v 0.926655 -0.030855 1.831765
v 0.977107 -0.030855 1.915939
v 1.019065 -0.030855 2.004652
v 1.052126 -0.030855 2.097051
v 1.075971 -0.030855 2.192245
v 1.090370 -0.030855 2.289319
v 1.095186 -0.030855 2.387336
v 1.090370 -0.030855 2.485353
v 1.075971 -0.030855 2.582426
v 1.052126 -0.030855 2.677621
v 1.019065 -0.030855 2.770020
v 0.977107 -0.030855 2.858733
v 0.926655 -0.030855 2.942906
v 0.868196 -0.030855 3.021729
v 0.802292 -0.030855 3.094443
v 0.729579 -0.030855 3.160347
v 0.650756 -0.030855 3.218806
v 0.566582 -0.030855 3.269257
v 0.477869 -0.030855 3.311216
v 0.385470 -0.030855 3.344276
v 0.290275 -0.030855 3.368121
v 0.193202 -0.030855 3.382521
v 0.095185 -0.030855 3.387336
v -0.002832 -0.030855 3.382520
v -0.099905 -0.030855 3.368121
v -0.195100 -0.030855 3.344276
v -0.287499 -0.030855 3.311215
v -0.376212 -0.030855 3.269257
v -0.460385 -0.030855 3.218805
v -0.539208 -0.030855 3.160346
v -0.611922 -0.030855 3.094442
v -0.677825 -0.030855 3.021728
v -0.736284 -0.030855 2.942905
v -0.786736 -0.030855 2.858732
v -0.828694 -0.030855 2.770019
v -0.861755 -0.030855 2.677620
v -0.885599 -0.030855 2.582426
v -0.899999 -0.030855 2.485353
v -0.904814 -0.030855 2.387336
v -0.899999 -0.030855 2.289319
v -0.885600 -0.030855 2.192246
v -0.861755 -0.030855 2.097052
v -0.828694 -0.030855 2.004653
v -0.786736 -0.030855 1.915940
v -0.736285 -0.030855 1.831767
v -0.677826 -0.030855 1.752944
v -0.611923 -0.030855 1.680230
v -0.539209 -0.030855 1.614327
v -0.460387 -0.030855 1.555868
v -0.376213 -0.030855 1.505416
v -0.287500 -0.030855 1.463457
v -0.195102 -0.030855 1.430396
v -0.099908 -0.030855 1.406551
v -0.002835 -0.030855 1.392151
vt 0.444742 0.101986
vt 0.735520 0.499537
vt 0.432953 0.114171
vt 0.432953 0.895500
vt 0.722569 0.499537
vt 0.445139 0.907257
vt 0.458881 0.918732
vt 0.474047 0.929816
vt 0.490492 0.940402
vt 0.508057 0.950388
vt 0.526573 0.959677
vt 0.545862 0.968180
vt 0.565737 0.975815
vt 0.586007 0.982509
vt 0.606478 0.988197
vt 0.626952 0.992825
vt 0.647231 0.996347
vt 0.667121 0.998731
vt 0.686431 0.999952
vt 0.704973 1.000000
vt 0.722569 0.998873
vt 1.000000 0.500663
vt 1.000000 1.000000
vt 0.982403 0.499537
vt 0.963861 0.499585
vt 0.944552 0.500806
vt 0.924662 0.503189
vt 0.904382 0.506712
vt 0.883909 0.511340
vt 0.863438 0.517028
vt 0.843167 0.523722
vt 0.823292 0.531357
vt 0.804004 0.539860
vt 0.785488 0.549149
vt 0.767923 0.559135
vt 0.751478 0.569721
vt 0.736311 0.580805
vt 0.722569 0.592280
vt 0.289616 0.451001
vt 0.289616 0.950338
vt 0.272019 0.449875
vt 0.253477 0.449923
vt 0.234168 0.451144
vt 0.214278 0.453527
vt 0.193998 0.457050
vt 0.173524 0.461678
vt 0.153054 0.467366
vt 0.132783 0.474060
vt 0.112908 0.481695
vt 0.093620 0.490198
vt 0.075104 0.499487
vt 0.057539 0.509473
vt 0.041094 0.520059
vt 0.025927 0.531143
vt 0.012185 0.542618
vt 0.000000 0.554375
vt 0.735520 0.002195
vt 0.718972 0.000496
vt 0.701348 0.000000
vt 0.682819 0.000711
vt 0.663562 0.002623
vt 0.643762 0.005716
vt 0.623612 0.009962
vt 0.603303 0.015320
vt 0.583033 0.021737
vt 0.562997 0.029152
vt 0.543386 0.037494
vt 0.524391 0.046683
vt 0.506194 0.056629
vt 0.488971 0.067237
vt 0.472886 0.078404
vt 0.458096 0.090025
vt 0.205842 0.000000
vt 0.377069 0.376178
vt 0.227112 0.449875
vt 0.205842 0.449875
vt 0.184675 0.447709
vt 0.163814 0.443397
vt 0.143460 0.436981
vt 0.123809 0.428524
vt 0.105051 0.418105
vt 0.087366 0.405827
vt 0.070925 0.391806
vt 0.055885 0.376178
vt 0.042391 0.359094
vt 0.030574 0.340718
vt 0.020548 0.321227
vt 0.012409 0.300808
vt 0.000000 0.235988
vt 0.006234 0.279659
vt 0.002085 0.257982
vt 0.000000 0.213887
vt 0.012409 0.149067
vt 0.002085 0.191892
vt 0.006234 0.170216
vt 0.020548 0.128648
vt 0.055885 0.073696
vt 0.030575 0.109157
vt 0.042391 0.090781
vt 0.070925 0.058069
vt 0.087366 0.044048
vt 0.105051 0.031769
vt 0.123810 0.021351
vt 0.143460 0.012893
vt 0.163814 0.006478
vt 0.184675 0.002166
vt 0.227112 0.000000
vt 0.289494 0.012894
vt 0.248279 0.002166
vt 0.269140 0.006478
vt 0.309144 0.021351
vt 0.362029 0.058069
vt 0.327902 0.031770
vt 0.345587 0.044048
vt 0.377069 0.073697
vt 0.390562 0.090781
vt 0.402379 0.109157
vt 0.412405 0.128648
vt 0.420545 0.149067
vt 0.426719 0.170216
vt 0.430869 0.191892
vt 0.432953 0.213887
vt 0.432953 0.235988
vt 0.430869 0.257982
vt 0.426719 0.279659
vt 0.420545 0.300808
vt 0.412405 0.321226
vt 0.402379 0.340718
vt 0.390562 0.359094
vt 0.362029 0.391806
vt 0.345588 0.405827
vt 0.327903 0.418105
vt 0.309145 0.428523
vt 0.289494 0.436981
vt 0.269140 0.443397
vt 0.248279 0.447709
vn 0.0000 -0.5142 -0.8577
vn 0.0000 1.0000 0.0000
vn 0.0840 -0.5142 -0.8535
vn 0.1673 -0.5142 -0.8412
vn 0.2490 -0.5142 -0.8207
vn 0.3282 -0.5142 -0.7924
vn 0.4043 -0.5142 -0.7564
vn 0.4765 -0.5142 -0.7131
vn 0.5441 -0.5142 -0.6630
vn 0.6065 -0.5142 -0.6065
vn 0.6630 -0.5142 -0.5441
vn 0.7131 -0.5142 -0.4765
vn 0.7564 -0.5142 -0.4043
vn 0.7924 -0.5142 -0.3282
vn 0.8207 -0.5142 -0.2490
vn 0.8412 -0.5142 -0.1673
vn 0.8535 -0.5142 -0.0840
vn 0.8577 -0.5142 0.0000
vn 0.8535 -0.5142 0.0840
vn 0.8412 -0.5142 0.1673
vn 0.8207 -0.5142 0.2490
vn 0.7924 -0.5142 0.3282
vn 0.7564 -0.5142 0.4043
vn 0.7131 -0.5142 0.4765
vn 0.6630 -0.5142 0.5441
vn 0.6065 -0.5142 0.6065
vn 0.5441 -0.5142 0.6630
vn 0.4765 -0.5142 0.7131
vn 0.4043 -0.5142 0.7564
vn 0.3282 -0.5142 0.7924
vn 0.2490 -0.5142 0.8207
vn 0.1673 -0.5142 0.8412
vn 0.0840 -0.5142 0.8535
vn 0.0000 -0.5142 0.8577
vn -0.0840 -0.5142 0.8535
vn -0.1673 -0.5142 0.8412
vn -0.2490 -0.5142 0.8207
vn -0.3282 -0.5142 0.7924
vn -0.4043 -0.5142 0.7564
vn -0.4765 -0.5142 0.7131
vn -0.5441 -0.5142 0.6630
vn -0.6065 -0.5142 0.6065
vn -0.6630 -0.5142 0.5441
vn -0.7131 -0.5142 0.4765
vn -0.7564 -0.5142 0.4043
vn -0.7924 -0.5142 0.3282
vn -0.8207 -0.5142 0.2490
vn -0.8412 -0.5142 0.1673
vn -0.8535 -0.5142 0.0840
vn -0.8577 -0.5142 0.0000
vn -0.8535 -0.5142 -0.0840
vn -0.8412 -0.5142 -0.1673
vn -0.8207 -0.5142 -0.2490
vn -0.7924 -0.5142 -0.3282
vn -0.7564 -0.5142 -0.4043
vn -0.7131 -0.5142 -0.4765
vn -0.6630 -0.5142 -0.5441
vn -0.6065 -0.5142 -0.6065
vn -0.5441 -0.5142 -0.6630
vn -0.4765 -0.5142 -0.7131
vn -0.4043 -0.5142 -0.7564
vn -0.3282 -0.5142 -0.7924
vn -0.2490 -0.5142 -0.8207
vn -0.1673 -0.5142 -0.8412
vn -0.0840 -0.5142 -0.8535
usemtl Material.002
s 1
f 1/1/1 2/2/2 3/3/3
f 3/4/3 2/5/2 4/6/4
f 4/6/4 2/5/2 5/7/5
f 5/7/5 2/5/2 6/8/6
f 6/8/6 2/5/2 7/9/7
f 7/9/7 2/5/2 8/10/8
f 8/10/8 2/5/2 9/11/9
f 9/11/9 2/5/2 10/12/10
f 10/12/10 2/5/2 11/13/11
f 11/13/11 2/5/2 12/14/12
f 12/14/12 2/5/2 13/15/13
f 13/15/13 2/5/2 14/16/14
f 14/16/14 2/5/2 15/17/15
f 15/17/15 2/5/2 16/18/16
f 16/18/16 2/5/2 17/19/17
f 17/19/17 2/5/2 18/20/18
f 18/20/18 2/5/2 19/21/19
f 19/22/19 2/23/2 20/24/20
f 20/24/20 2/23/2 21/25/21
f 21/25/21 2/23/2 22/26/22
f 22/26/22 2/23/2 23/27/23
f 23/27/23 2/23/2 24/28/24
f 24/28/24 2/23/2 25/29/25
f 25/29/25 2/23/2 26/30/26
f 26/30/26 2/23/2 27/31/27
f 27/31/27 2/23/2 28/32/28
f 28/32/28 2/23/2 29/33/29
f 29/33/29 2/23/2 30/34/30
f 30/34/30 2/23/2 31/35/31
f 31/35/31 2/23/2 32/36/32
f 32/36/32 2/23/2 33/37/33
f 33/37/33 2/23/2 34/38/34
f 34/39/34 2/40/2 35/41/35
f 35/41/35 2/40/2 36/42/36
f 36/42/36 2/40/2 37/43/37
f 37/43/37 2/40/2 38/44/38
f 38/44/38 2/40/2 39/45/39
f 39/45/39 2/40/2 40/46/40
f 40/46/40 2/40/2 41/47/41
f 41/47/41 2/40/2 42/48/42
f 42/48/42 2/40/2 43/49/43
f 43/49/43 2/40/2 44/50/44
f 44/50/44 2/40/2 45/51/45
f 45/51/45 2/40/2 46/52/46
f 46/52/46 2/40/2 47/53/47
f 47/53/47 2/40/2 48/54/48
f 48/54/48 2/40/2 49/55/49
f 49/55/49 2/40/2 50/56/50
f 50/57/50 2/2/2 51/58/51
f 51/58/51 2/2/2 52/59/52
f 52/59/52 2/2/2 53/60/53
f 53/60/53 2/2/2 54/61/54
f 54/61/54 2/2/2 55/62/55
f 55/62/55 2/2/2 56/63/56
f 56/63/56 2/2/2 57/64/57
f 57/64/57 2/2/2 58/65/58
f 58/65/58 2/2/2 59/66/59
f 59/66/59 2/2/2 60/67/60
f 60/67/60 2/2/2 61/68/61
f 61/68/61 2/2/2 62/69/62
f 62/69/62 2/2/2 63/70/63
f 63/70/63 2/2/2 64/71/64
f 64/71/64 2/2/2 65/72/65
f 65/72/65 2/2/2 1/1/1
f 33/73/33 57/74/57 65/75/65
f 65/75/65 1/76/1 3/77/3
f 3/77/3 4/78/4 65/75/65
f 5/79/5 6/80/6 7/81/7
f 7/81/7 8/82/8 9/83/9
f 9/83/9 10/84/10 11/85/11
f 11/85/11 12/86/12 13/87/13
f 13/87/13 14/88/14 17/89/17
f 15/90/15 16/91/16 17/89/17
f 17/89/17 18/92/18 21/93/21
f 19/94/19 20/95/20 21/93/21
f 21/93/21 22/96/22 25/97/25
f 23/98/23 24/99/24 25/97/25
f 25/97/25 26/100/26 27/101/27
f 27/101/27 28/102/28 29/103/29
f 29/103/29 30/104/30 31/105/31
f 31/105/31 32/106/32 33/73/33
f 33/73/33 34/107/34 37/108/37
f 35/109/35 36/110/36 37/108/37
f 37/108/37 38/111/38 41/112/41
f 39/113/39 40/114/40 41/112/41
f 41/112/41 42/115/42 43/116/43
f 43/116/43 44/117/44 45/118/45
f 45/118/45 46/119/46 47/120/47
f 47/120/47 48/121/48 49/122/49
f 49/122/49 50/123/50 51/124/51
f 51/124/51 52/125/52 53/126/53
f 53/126/53 54/127/54 55/128/55
f 55/128/55 56/129/56 57/74/57
f 57/74/57 58/130/58 59/131/59
f 59/131/59 60/132/60 61/133/61
f 61/133/61 62/134/62 65/75/65
f 63/135/63 64/136/64 65/75/65
f 65/75/65 4/78/4 5/79/5
f 5/79/5 7/81/7 65/75/65
f 9/83/9 11/85/11 13/87/13
f 14/88/14 15/90/15 17/89/17
f 18/92/18 19/94/19 21/93/21
f 22/96/22 23/98/23 25/97/25
f 25/97/25 27/101/27 29/103/29
f 29/103/29 31/105/31 33/73/33
f 34/107/34 35/109/35 37/108/37
f 38/111/38 39/113/39 41/112/41
f 41/112/41 43/116/43 45/118/45
f 45/118/45 47/120/47 41/112/41
f 49/122/49 51/124/51 57/74/57
f 53/126/53 55/128/55 57/74/57
f 57/74/57 59/131/59 65/75/65
f 62/134/62 63/135/63 65/75/65
f 65/75/65 7/81/7 9/83/9
f 9/83/9 13/87/13 17/89/17
f 17/89/17 21/93/21 25/97/25
f 25/97/25 29/103/29 17/89/17
f 33/73/33 37/108/37 41/112/41
f 41/112/41 47/120/47 49/122/49
f 51/124/51 53/126/53 57/74/57
f 59/131/59 61/133/61 65/75/65
f 65/75/65 9/83/9 17/89/17
f 17/89/17 29/103/29 33/73/33
f 33/73/33 41/112/41 49/122/49
f 49/122/49 57/74/57 33/73/33
f 65/75/65 17/89/17 33/73/33
