# Blender v2.79 (sub 0) OBJ File: ''
# www.blender.org
mtllib normalMapCube.mtl
o Cube
v 1.000000 -1.000000 -1.000000
v 1.000000 -1.000000 1.000000
v -1.000000 -1.000000 1.000000
v -1.000000 -1.000000 -1.000000
v 1.000000 1.000000 -0.999999
v 0.999999 1.000000 1.000001
v -1.000000 1.000000 1.000000
v -1.000000 1.000000 -1.000000
vt 1.000000 0.000000
vt 0.000000 1.000000
vt 0.000000 0.000000
vt 0.000000 0.000000
vt 1.000000 1.000000
vt 0.000000 1.000000
vt 0.000000 0.000000
vt 1.000000 1.000000
vt 0.000000 1.000000
vt 0.000000 0.000000
vt 1.000000 1.000000
vt 0.000000 0.000000
vt 1.000000 1.000000
vt 0.000000 1.000000
vt 1.000000 0.000000
vt 0.000000 0.000000
vt 1.000000 0.000000
vt 1.000000 0.000000
vt 1.000000 1.000000
vn 0.0000 0.0000 -1.0000
vn 0.0000 -0.0000 1.0000
vn 1.0000 -0.0000 0.0000
vn 0.0000 1.0000 0.0000
vn -1.0000 -0.0000 -0.0000
vn 0.0000 -1.0000 0.0000
usemtl Material
s off
f 4/1/1 5/2/1 1/3/1
f 6/4/2 3/5/2 2/6/2
f 5/7/3 2/8/3 1/9/3
f 8/10/4 6/11/4 5/2/4
f 3/12/5 8/13/5 4/14/5
f 3/15/6 1/9/6 2/16/6
f 4/1/1 8/13/1 5/2/1
f 6/4/2 7/17/2 3/5/2
f 5/7/3 6/18/3 2/8/3
f 8/10/4 7/17/4 6/11/4
f 3/12/5 7/17/5 8/13/5
f 3/15/6 4/19/6 1/9/6
