# Blender v2.79 (sub 0) OBJ File: ''
# www.blender.org
mtllib SoilCube.mtl
o Cube
v 1.000000 -1.000000 -1.000000
v 1.000000 -1.000000 1.000000
v -1.000000 -1.000000 1.000000
v -1.000000 -1.000000 -1.000000
v 1.000000 1.000000 -0.999999
v 0.999999 1.000000 1.000001
v -1.000000 1.000000 1.000000
v -1.000000 1.000000 -1.000000
vt 0.000000 0.000000
vt 1.000000 0.000000
vt 1.000000 1.000000
vt 0.000000 0.000000
vt 1.000000 0.000000
vt 1.000000 1.000000
vt 1.000000 1.000000
vt 0.000000 1.000000
vt 0.000000 0.000000
vt 1.000000 0.000000
vt 1.000000 1.000000
vt 1.000000 0.000000
vt 1.000000 1.000000
vt 0.000000 0.000000
vt 1.000000 0.000000
vt 0.000000 1.000000
vt 1.000000 0.000000
vt 1.000000 0.000000
vn 0.0000 -1.0000 0.0000
vn 0.0000 -0.0000 1.0000
vn 1.0000 0.0000 0.0000
vn 0.0000 1.0000 0.0000
vn -1.0000 -0.0000 -0.0000
vn 0.0000 0.0000 -1.0000
usemtl Material
s off
f 2/1/1 4/2/1 1/3/1
f 3/4/2 2/5/2 6/6/2
f 2/1/3 5/7/3 6/8/3
f 6/9/4 5/10/4 8/11/4
f 3/4/5 8/12/5 4/13/5
f 1/14/6 8/12/6 5/7/6
f 2/1/1 3/15/1 4/13/1
f 6/9/4 8/11/4 7/16/4
f 2/1/3 1/17/3 5/7/3
f 3/4/2 6/6/2 7/16/2
f 3/4/5 7/18/5 8/11/5
f 1/14/6 4/2/6 8/11/6
